<svg id="visual" viewBox="0 0 960 540" width="960" height="540" xmlns="http://www.w3.org/2000/svg" xmlns:xlink="http://www.w3.org/1999/xlink" version="1.1"><rect x="0" y="0" width="960" height="540" fill="#001220"></rect><path d="M0 113L22.8 109.3C45.7 105.7 91.3 98.3 137 98.3C182.7 98.3 228.3 105.7 274 111.5C319.7 117.3 365.3 121.7 411.2 118.7C457 115.7 503 105.3 548.8 99.2C594.7 93 640.3 91 686 93.8C731.7 96.7 777.3 104.3 823 107.5C868.7 110.7 914.3 109.3 937.2 108.7L960 108L960 0L937.2 0C914.3 0 868.7 0 823 0C777.3 0 731.7 0 686 0C640.3 0 594.7 0 548.8 0C503 0 457 0 411.2 0C365.3 0 319.7 0 274 0C228.3 0 182.7 0 137 0C91.3 0 45.7 0 22.8 0L0 0Z" fill="#c45656"></path><path d="M0 75L22.8 79.2C45.7 83.3 91.3 91.7 137 95.8C182.7 100 228.3 100 274 98C319.7 96 365.3 92 411.2 93.2C457 94.3 503 100.7 548.8 100.5C594.7 100.3 640.3 93.7 686 94.7C731.7 95.7 777.3 104.3 823 106.3C868.7 108.3 914.3 103.7 937.2 101.3L960 99L960 0L937.2 0C914.3 0 868.7 0 823 0C777.3 0 731.7 0 686 0C640.3 0 594.7 0 548.8 0C503 0 457 0 411.2 0C365.3 0 319.7 0 274 0C228.3 0 182.7 0 137 0C91.3 0 45.7 0 22.8 0L0 0Z" fill="#bd4f4f"></path><path d="M0 92L22.8 92.2C45.7 92.3 91.3 92.7 137 90.8C182.7 89 228.3 85 274 85.7C319.7 86.3 365.3 91.7 411.2 92.8C457 94 503 91 548.8 90.2C594.7 89.3 640.3 90.7 686 88.5C731.7 86.3 777.3 80.7 823 75.8C868.7 71 914.3 67 937.2 65L960 63L960 0L937.2 0C914.3 0 868.7 0 823 0C777.3 0 731.7 0 686 0C640.3 0 594.7 0 548.8 0C503 0 457 0 411.2 0C365.3 0 319.7 0 274 0C228.3 0 182.7 0 137 0C91.3 0 45.7 0 22.8 0L0 0Z" fill="#b64747"></path><path d="M0 72L22.8 71.7C45.7 71.3 91.3 70.7 137 67.5C182.7 64.3 228.3 58.7 274 60.3C319.7 62 365.3 71 411.2 72.3C457 73.7 503 67.3 548.8 63.5C594.7 59.7 640.3 58.3 686 60.5C731.7 62.7 777.3 68.3 823 67C868.7 65.7 914.3 57.3 937.2 53.2L960 49L960 0L937.2 0C914.3 0 868.7 0 823 0C777.3 0 731.7 0 686 0C640.3 0 594.7 0 548.8 0C503 0 457 0 411.2 0C365.3 0 319.7 0 274 0C228.3 0 182.7 0 137 0C91.3 0 45.7 0 22.8 0L0 0Z" fill="#af4040"></path><path d="M0 52L22.8 50C45.7 48 91.3 44 137 45.5C182.7 47 228.3 54 274 53.8C319.7 53.7 365.3 46.3 411.2 44C457 41.7 503 44.3 548.8 47.3C594.7 50.3 640.3 53.7 686 51.7C731.7 49.7 777.3 42.3 823 40C868.7 37.7 914.3 40.3 937.2 41.7L960 43L960 0L937.2 0C914.3 0 868.7 0 823 0C777.3 0 731.7 0 686 0C640.3 0 594.7 0 548.8 0C503 0 457 0 411.2 0C365.3 0 319.7 0 274 0C228.3 0 182.7 0 137 0C91.3 0 45.7 0 22.8 0L0 0Z" fill="#a83939"></path><path d="M0 46L22.8 43.7C45.7 41.3 91.3 36.7 137 35.8C182.7 35 228.3 38 274 38.8C319.7 39.7 365.3 38.3 411.2 36.2C457 34 503 31 548.8 32.7C594.7 34.3 640.3 40.7 686 41.7C731.7 42.7 777.3 38.3 823 35.3C868.7 32.3 914.3 30.7 937.2 29.8L960 29L960 0L937.2 0C914.3 0 868.7 0 823 0C777.3 0 731.7 0 686 0C640.3 0 594.7 0 548.8 0C503 0 457 0 411.2 0C365.3 0 319.7 0 274 0C228.3 0 182.7 0 137 0C91.3 0 45.7 0 22.8 0L0 0Z" fill="#a13131"></path><path d="M0 14L22.8 15.7C45.7 17.3 91.3 20.7 137 22C182.7 23.3 228.3 22.7 274 20.7C319.7 18.7 365.3 15.3 411.2 13.5C457 11.7 503 11.3 548.8 14.2C594.7 17 640.3 23 686 25.7C731.7 28.3 777.3 27.7 823 27.5C868.7 27.3 914.3 27.7 937.2 27.8L960 28L960 0L937.2 0C914.3 0 868.7 0 823 0C777.3 0 731.7 0 686 0C640.3 0 594.7 0 548.8 0C503 0 457 0 411.2 0C365.3 0 319.7 0 274 0C228.3 0 182.7 0 137 0C91.3 0 45.7 0 22.8 0L0 0Z" fill="#9a2a2a"></path></svg>