<svg id="visual" viewBox="0 0 1600 500" width="1600" height="500" xmlns="http://www.w3.org/2000/svg" xmlns:xlink="http://www.w3.org/1999/xlink" version="1.1"><rect x="0" y="0" width="1600" height="500" fill="#f09393"></rect><path d="M0 174L38.2 170.8C76.3 167.7 152.7 161.3 228.8 158.8C305 156.3 381 157.7 457.2 160.2C533.3 162.7 609.7 166.3 685.8 164C762 161.7 838 153.3 914.2 154.5C990.3 155.7 1066.7 166.3 1142.8 165.8C1219 165.3 1295 153.7 1371.2 150.2C1447.3 146.7 1523.7 151.3 1561.8 153.7L1600 156L1600 0L1561.8 0C1523.7 0 1447.3 0 1371.2 0C1295 0 1219 0 1142.8 0C1066.7 0 990.3 0 914.2 0C838 0 762 0 685.8 0C609.7 0 533.3 0 457.2 0C381 0 305 0 228.8 0C152.7 0 76.3 0 38.2 0L0 0Z" fill="#c45656"></path><path d="M0 143L38.2 144.5C76.3 146 152.7 149 228.8 146.3C305 143.7 381 135.3 457.2 135C533.3 134.7 609.7 142.3 685.8 142.2C762 142 838 134 914.2 131.7C990.3 129.3 1066.7 132.7 1142.8 135.7C1219 138.7 1295 141.3 1371.2 140.8C1447.3 140.3 1523.7 136.7 1561.8 134.8L1600 133L1600 0L1561.8 0C1523.7 0 1447.3 0 1371.2 0C1295 0 1219 0 1142.8 0C1066.7 0 990.3 0 914.2 0C838 0 762 0 685.8 0C609.7 0 533.3 0 457.2 0C381 0 305 0 228.8 0C152.7 0 76.3 0 38.2 0L0 0Z" fill="#bd4f4f"></path><path d="M0 100L38.2 99.7C76.3 99.3 152.7 98.7 228.8 101.7C305 104.7 381 111.3 457.2 114.8C533.3 118.3 609.7 118.7 685.8 118C762 117.3 838 115.7 914.2 117.5C990.3 119.3 1066.7 124.7 1142.8 124C1219 123.3 1295 116.7 1371.2 114.2C1447.3 111.7 1523.7 113.3 1561.8 114.2L1600 115L1600 0L1561.8 0C1523.7 0 1447.3 0 1371.2 0C1295 0 1219 0 1142.8 0C1066.7 0 990.3 0 914.2 0C838 0 762 0 685.8 0C609.7 0 533.3 0 457.2 0C381 0 305 0 228.8 0C152.7 0 76.3 0 38.2 0L0 0Z" fill="#b64747"></path><path d="M0 103L38.2 102.3C76.3 101.7 152.7 100.3 228.8 97.2C305 94 381 89 457.2 87.3C533.3 85.7 609.7 87.3 685.8 90.5C762 93.7 838 98.3 914.2 97.5C990.3 96.7 1066.7 90.3 1142.8 89.7C1219 89 1295 94 1371.2 92.7C1447.3 91.3 1523.7 83.7 1561.8 79.8L1600 76L1600 0L1561.8 0C1523.7 0 1447.3 0 1371.2 0C1295 0 1219 0 1142.8 0C1066.7 0 990.3 0 914.2 0C838 0 762 0 685.8 0C609.7 0 533.3 0 457.2 0C381 0 305 0 228.8 0C152.7 0 76.3 0 38.2 0L0 0Z" fill="#af4040"></path><path d="M0 60L38.2 62.5C76.3 65 152.7 70 228.8 73.7C305 77.3 381 79.7 457.2 78C533.3 76.3 609.7 70.7 685.8 70C762 69.3 838 73.7 914.2 72C990.3 70.3 1066.7 62.7 1142.8 60.7C1219 58.7 1295 62.3 1371.2 65.5C1447.3 68.7 1523.7 71.3 1561.8 72.7L1600 74L1600 0L1561.8 0C1523.7 0 1447.3 0 1371.2 0C1295 0 1219 0 1142.8 0C1066.7 0 990.3 0 914.2 0C838 0 762 0 685.8 0C609.7 0 533.3 0 457.2 0C381 0 305 0 228.8 0C152.7 0 76.3 0 38.2 0L0 0Z" fill="#a83939"></path><path d="M0 36L38.2 39.8C76.3 43.7 152.7 51.3 228.8 53.8C305 56.3 381 53.7 457.2 51C533.3 48.3 609.7 45.7 685.8 44.2C762 42.7 838 42.3 914.2 43C990.3 43.7 1066.7 45.3 1142.8 46.3C1219 47.3 1295 47.7 1371.2 45.3C1447.3 43 1523.7 38 1561.8 35.5L1600 33L1600 0L1561.8 0C1523.7 0 1447.3 0 1371.2 0C1295 0 1219 0 1142.8 0C1066.7 0 990.3 0 914.2 0C838 0 762 0 685.8 0C609.7 0 533.3 0 457.2 0C381 0 305 0 228.8 0C152.7 0 76.3 0 38.2 0L0 0Z" fill="#a13131"></path><path d="M0 32L38.2 29.8C76.3 27.7 152.7 23.3 228.8 23.8C305 24.3 381 29.7 457.2 29.8C533.3 30 609.7 25 685.8 22.3C762 19.7 838 19.3 914.2 20.3C990.3 21.3 1066.7 23.7 1142.8 23.3C1219 23 1295 20 1371.2 20.3C1447.3 20.7 1523.7 24.3 1561.8 26.2L1600 28L1600 0L1561.8 0C1523.7 0 1447.3 0 1371.2 0C1295 0 1219 0 1142.8 0C1066.7 0 990.3 0 914.2 0C838 0 762 0 685.8 0C609.7 0 533.3 0 457.2 0C381 0 305 0 228.8 0C152.7 0 76.3 0 38.2 0L0 0Z" fill="#9a2a2a"></path></svg>