<svg id="visual" viewBox="0 0 1600 500" width="1600" height="500" xmlns="http://www.w3.org/2000/svg" xmlns:xlink="http://www.w3.org/1999/xlink" version="1.1"><rect x="0" y="0" width="1600" height="500" fill="#e4e4e4"></rect><path d="M0 121L53.3 117.8C106.7 114.7 213.3 108.3 320 106C426.7 103.7 533.3 105.3 640 109C746.7 112.7 853.3 118.3 960 119.3C1066.7 120.3 1173.3 116.7 1280 112.5C1386.7 108.3 1493.3 103.7 1546.7 101.3L1600 99L1600 0L1546.7 0C1493.3 0 1386.7 0 1280 0C1173.3 0 1066.7 0 960 0C853.3 0 746.7 0 640 0C533.3 0 426.7 0 320 0C213.3 0 106.7 0 53.3 0L0 0Z" fill="#f6f6f8"></path><path d="M0 66L53.3 63.8C106.7 61.7 213.3 57.3 320 59.3C426.7 61.3 533.3 69.7 640 75.2C746.7 80.7 853.3 83.3 960 80.3C1066.7 77.3 1173.3 68.7 1280 68.7C1386.7 68.7 1493.3 77.3 1546.7 81.7L1600 86L1600 0L1546.7 0C1493.3 0 1386.7 0 1280 0C1173.3 0 1066.7 0 960 0C853.3 0 746.7 0 640 0C533.3 0 426.7 0 320 0C213.3 0 106.7 0 53.3 0L0 0Z" fill="#ececed"></path><path d="M0 21L53.3 22.5C106.7 24 213.3 27 320 29.7C426.7 32.3 533.3 34.7 640 35C746.7 35.3 853.3 33.7 960 35.7C1066.7 37.7 1173.3 43.3 1280 43C1386.7 42.7 1493.3 36.3 1546.7 33.2L1600 30L1600 0L1546.7 0C1493.3 0 1386.7 0 1280 0C1173.3 0 1066.7 0 960 0C853.3 0 746.7 0 640 0C533.3 0 426.7 0 320 0C213.3 0 106.7 0 53.3 0L0 0Z" fill="#e3e3e3"></path></svg>